<svg width="110" height="145" viewBox="0 0 110 145" fill="none" xmlns="http://www.w3.org/2000/svg">
<path d="M8.28712 61C14.4765 45.218 32.1329 21.1869 57.7871 2C80.5335 22.3616 97.7871 43 104.287 61C109.523 75.5 108.573 94.5 104.287 107C98.2871 124.5 78.5521 140.191 57.7871 143C37.1259 141.668 11.9543 129.334 5.28711 107C-0.456485 87.7602 1.82379 77.4806 8.28712 61Z" fill="#714B28"/>
<path d="M57.7871 2C32.1329 21.1869 14.4765 45.218 8.28712 61C1.82379 77.4806 -0.456485 87.7602 5.28711 107C11.9543 129.334 37.1259 141.668 57.7871 143M57.7871 2C80.5335 22.3616 97.7871 43 104.287 61C109.523 75.5 108.573 94.5 104.287 107C98.2871 124.5 78.5521 140.191 57.7871 143M57.7871 2C-3.7568 75.7716 8.28712 122 57.7871 143M57.7871 2C87.0815 75.3506 88.7414 107.262 57.7871 143" stroke="#461B08" stroke-width="3"/>
<path d="M100.599 61.9359C103.98 74.1803 99.3802 92.8764 95.9198 93.8319C92.4595 94.7874 95.3048 76.5757 91.9239 64.3313C88.543 52.087 76.7562 37.9155 80.2166 36.96C83.6769 36.0046 97.2184 49.6916 100.599 61.9359Z" fill="white"/>
<circle cx="37.2871" cy="80.5" r="7.5" fill="black" stroke="black"/>
<circle cx="79.2871" cy="80.5" r="8" fill="black"/>
<path d="M49.7871 89.5C56.7521 93.7153 60.3166 93.3382 66.2871 89.5" stroke="black" stroke-width="3" stroke-linecap="round"/>
<circle cx="40.2871" cy="77.5" r="3" fill="white"/>
<circle cx="82.2871" cy="77.5" r="3" fill="white"/>
<ellipse cx="24.2871" cy="91.5" rx="9" ry="4" fill="#EE8686"/>
<ellipse cx="92.2871" cy="91.5" rx="9" ry="4" fill="#EE8686"/>
</svg>
